<svg width="25" height="25" viewBox="0 0 25 25" fill="none" xmlns="http://www.w3.org/2000/svg">
<g clip-path="url(#clip0_16_122)">
<path d="M22.5 3.75H11.25V4.58333H22.5V3.75Z" fill="black"/>
<path d="M18.3333 5.41663H11.25V6.24996H18.3333V5.41663Z" fill="black"/>
<path d="M18.3333 7.08337H11.25V7.91671H18.3333V7.08337Z" fill="black"/>
<path d="M22.4999 2.08337H14.5833V2.91671H22.4999V2.08337Z" fill="black"/>
<path d="M13.7501 2.08337H12.9167V2.91671H13.7501V2.08337Z" fill="black"/>
<path d="M12.9166 16.6666H12.0833V17.5H12.9166V16.6666Z" fill="black"/>
<path d="M6.96124 2.79461L6.37207 2.20544L5.53874 3.03878C5.37608 3.20149 5.37608 3.46524 5.53874 3.62794L6.37207 4.46128L6.96124 3.87211L6.42249 3.33336L6.96124 2.79461Z" fill="black"/>
<path d="M10.2946 3.03878L9.46124 2.20544L8.87207 2.79461L9.41082 3.33336L8.87207 3.87211L9.46124 4.46128L10.2946 3.62794C10.4572 3.46524 10.4572 3.20149 10.2946 3.03878Z" fill="black"/>
<path d="M7.93836 1.95109L7.10425 4.45105L7.89435 4.71467L8.72846 2.21471L7.93836 1.95109Z" fill="black"/>
<path d="M21.6666 12.9167V9.58333H20.8333V12.9167H19.9999V8.75H19.1666V12.9167H18.3333V10.8333H17.4999V12.9167H16.6666V10.4167H15.8333V12.9167H14.9999V11.25H14.1666V12.9167H13.3333V13.75H22.4999V12.9167H21.6666Z" fill="black"/>
<path d="M22.0834 0H2.91675C1.53659 0.00135417 0.418102 1.11984 0.416748 2.5V10.6775V10.6812V15.4167V16.6667C0.418102 18.0468 1.53659 19.1653 2.91675 19.1667H8.07591L6.40925 22.5H4.16675C3.47638 22.5 2.91675 23.0596 2.91675 23.75C2.91675 24.4404 3.47638 25 4.16675 25H20.8334C21.5238 25 22.0834 24.4404 22.0834 23.75C22.0834 23.0596 21.5238 22.5 20.8334 22.5H18.5909L16.9242 19.1667H22.0834C23.4636 19.1653 24.5821 18.0468 24.5834 16.6667V2.5C24.5821 1.11984 23.4636 0.00135417 22.0834 0ZM1.25008 5.8625L2.19716 6.99C2.27633 7.08432 2.39321 7.13875 2.51633 7.13875H3.79175C3.91487 7.13875 4.03175 7.08432 4.11091 6.99L5.05841 5.8625L5.99341 6.16625L6.09675 7.63417C6.10529 7.75693 6.16769 7.86964 6.26716 7.94208L7.29925 8.69208C7.39909 8.76417 7.52555 8.7887 7.64508 8.75917L9.0755 8.40375L9.65383 9.19917L8.87425 10.4492C8.80966 10.554 8.79472 10.6819 8.83342 10.7987L9.228 12.0117C9.26597 12.1286 9.35362 12.2229 9.46758 12.2692L10.8334 12.8229V13.8062L9.46675 14.36C9.35253 14.406 9.26472 14.5006 9.22716 14.6179L9.10216 15H6.70175C7.6355 13.045 6.80758 10.7032 4.85258 9.76943C3.7043 9.22099 2.36128 9.26359 1.25008 9.88375V5.8625ZM1.25008 10.875C2.59779 9.82359 4.54269 10.0638 5.59404 11.4116C6.40581 12.4521 6.46847 13.8929 5.75008 15H1.25008V10.875ZM20.8334 23.3333C21.0635 23.3333 21.2501 23.5199 21.2501 23.75C21.2501 23.9801 21.0635 24.1667 20.8334 24.1667H4.16675C3.93664 24.1667 3.75008 23.9801 3.75008 23.75C3.75008 23.5199 3.93664 23.3333 4.16675 23.3333H20.8334ZM17.6592 22.5H7.34091L9.00758 19.1667H15.9926L17.6592 22.5ZM23.7501 16.6667C23.7501 17.5871 23.0039 18.3333 22.0834 18.3333H2.91675C1.99628 18.3333 1.25008 17.5871 1.25008 16.6667V15.8333H5.96758H5.97133H23.7501V16.6667ZM23.7501 15H10.1063L11.4067 14.4729C11.5638 14.4092 11.6666 14.2566 11.6667 14.0871V12.5417C11.6668 12.372 11.564 12.2192 11.4067 12.1554L9.95841 11.5696L9.68425 10.7258L10.5101 9.40083C10.5997 9.25688 10.5931 9.07302 10.4934 8.93583L9.58508 7.68583C9.48534 7.54849 9.31232 7.48536 9.14758 7.52625L7.63258 7.90125L6.91675 7.38125L6.80716 5.82708C6.79524 5.65766 6.68164 5.5124 6.52008 5.46L5.05133 4.9825C4.88972 4.93104 4.71305 4.98182 4.60341 5.11125L3.6005 6.305H2.71175L1.70841 5.11125C1.59873 4.98167 1.4218 4.93083 1.26008 4.9825L1.25008 4.98625V2.5C1.25008 1.57953 1.99628 0.833333 2.91675 0.833333H22.0834C23.0039 0.833333 23.7501 1.57953 23.7501 2.5V15Z" fill="black"/>
</g>
<defs>
<clipPath id="clip0_16_122">
<rect width="25" height="25" fill="white"/>
</clipPath>
</defs>
</svg>
