<svg width="21" height="25" viewBox="0 0 21 25" fill="none" xmlns="http://www.w3.org/2000/svg">
<path d="M17.7168 16.333L16.2496 15.9022L13.0574 13.8172V13.3394C13.9816 12.6423 14.6163 11.5767 14.7342 10.3553C15.1978 10.2807 15.5529 9.87789 15.5529 9.39371V8.07999C15.5529 8.07491 15.5523 8.06993 15.5521 8.06486V6.4007C15.7368 6.26847 15.854 6.05309 15.854 5.81149V4.28854L18.0569 3.91329C18.419 3.85162 18.6793 3.56407 18.7049 3.19772C18.7304 2.83136 18.5125 2.51046 18.1626 2.39918L10.7359 0.0369751C10.581 -0.0123413 10.4173 -0.0122925 10.2624 0.0369263L2.83569 2.39918C2.48574 2.51046 2.26777 2.83136 2.29331 3.19767C2.30952 3.43043 2.42075 3.63112 2.59243 3.76256V5.75411H2.57427C2.15605 5.75411 1.81582 6.09435 1.81582 6.51256V7.50113L1.32622 10.3748C1.2416 10.8718 1.62441 11.3267 2.12979 11.3267H3.78745C4.2917 11.3267 4.67583 10.8729 4.59102 10.3747L4.10142 7.50113V6.51256C4.10142 6.09435 3.76118 5.75411 3.34297 5.75411H3.32485V3.97858L5.14585 4.28873V5.81149C5.14585 6.05206 5.2625 6.2671 5.44629 6.39952L5.44697 8.08014V9.39371C5.44697 9.87794 5.8021 10.2807 6.26563 10.3553C6.38355 11.576 7.01753 12.6411 7.94087 13.3383V13.8183L4.74937 15.9029L3.2833 16.3332C1.7145 16.7937 0.606787 18.2339 0.606787 19.9082V20.9996C0.606787 21.2018 0.770703 21.3658 0.972998 21.3658C1.17529 21.3658 1.33921 21.2019 1.33921 20.9996V19.9082C1.33921 18.5886 2.22344 17.4075 3.4896 17.0359L4.85562 16.635L10.3129 19.8778C10.4237 19.9436 10.5703 19.9471 10.6871 19.8778L16.1447 16.6348L17.5106 17.0358C18.7766 17.4074 19.6608 18.5885 19.6608 19.9079V23.4449C19.6608 23.8986 19.2917 24.2677 18.838 24.2677H17.2239V22.6892C17.2239 22.4869 17.06 22.323 16.8577 22.323C16.6555 22.323 16.4915 22.4869 16.4915 22.6892V24.2677H4.50674V22.6892C4.50674 22.4869 4.34282 22.323 4.14053 22.323C3.93823 22.323 3.77432 22.4869 3.77432 22.6892V24.2677H2.16187C1.7082 24.2677 1.33911 23.8986 1.33911 23.4449V22.7114C1.33911 22.5092 1.1752 22.3452 0.9729 22.3452C0.770605 22.3452 0.606689 22.5091 0.606689 22.7114V23.4449C0.606689 24.3024 1.3043 25 2.16182 25H18.8379C19.6955 25 20.3931 24.3024 20.3931 23.4449V19.9079C20.3931 18.2731 19.3231 16.8046 17.7168 16.333ZM3.7874 10.5943H2.12979C2.07856 10.5943 2.0395 10.5485 2.04819 10.4977L2.49106 7.8983H3.42612L3.86899 10.4977C3.87764 10.5484 3.83887 10.5943 3.7874 10.5943ZM3.36899 6.51256V7.16593H2.54814V6.51256C2.54814 6.49816 2.55981 6.48649 2.57422 6.48649H3.34287C3.35732 6.48644 3.36899 6.49816 3.36899 6.51256ZM9.19019 18.2213L9.33594 18.4453L5.59722 16.2237L7.97031 14.6737C8.07793 15.9364 8.49414 17.1515 9.19019 18.2213ZM9.18765 16.6404C10.0496 16.7629 10.9497 16.763 11.8122 16.6404C11.6455 17.0505 11.4401 17.4462 11.1958 17.8219L10.4999 18.8914L9.80405 17.8219C9.55967 17.4462 9.3543 17.0505 9.18765 16.6404ZM11.8096 18.2213C12.5057 17.1515 12.9219 15.9364 13.0294 14.6737L15.4025 16.2237L11.6639 18.4453L11.8096 18.2213ZM13.9518 6.53707H14.8197V7.71373H14.3889C14.1479 7.71373 13.9517 7.51764 13.9517 7.27657V6.53707H13.9518ZM3.05767 3.09713L10.4845 0.734827C10.494 0.731799 10.5042 0.73175 10.5139 0.734876L17.9407 3.09713C17.956 3.10201 17.9771 3.10865 17.9744 3.14679C17.9717 3.18488 17.95 3.18854 17.934 3.19127L15.4786 3.60948L14.5567 3.49547C14.3561 3.47062 14.1732 3.61329 14.1483 3.81398C14.1235 4.01471 14.2662 4.19752 14.4668 4.22233L15.1216 4.30333V5.8047L5.87822 5.80436V4.30328L9.66763 3.83439C10.2196 3.76617 10.7792 3.76617 11.3307 3.83439L12.7649 4.01178C12.9656 4.03663 13.1485 3.89401 13.1733 3.69332C13.1982 3.49259 13.0556 3.30978 12.8549 3.28492L11.4207 3.10753C10.8095 3.0319 10.1894 3.0319 9.57773 3.10753L5.52041 3.60958L3.06421 3.19127C3.04829 3.18854 3.02656 3.18488 3.02388 3.14679C3.02124 3.10865 3.04229 3.10197 3.05767 3.09713ZM6.17915 7.71373L6.17866 6.53707H7.04805V7.27662C7.04805 7.51764 6.85195 7.71378 6.61084 7.71378H6.17915V7.71373ZM6.98516 10.1671C6.96631 9.86886 6.71846 9.63527 6.42095 9.63527C6.2877 9.63527 6.1793 9.52687 6.1793 9.39366V8.44615H6.61084C7.25571 8.44615 7.78042 7.9215 7.78042 7.27662V6.53707H13.2193V7.27662C13.2193 7.9215 13.744 8.44615 14.3889 8.44615H14.8205V9.39366C14.8205 9.52687 14.7121 9.63527 14.5788 9.63527C14.2813 9.63527 14.0334 9.86886 14.0146 10.1671C13.898 12.0162 12.3541 13.4647 10.4999 13.4647C8.64561 13.4647 7.10181 12.0162 6.98516 10.1671ZM10.4999 14.197C11.1512 14.197 11.7703 14.0481 12.325 13.7833V14.0154C12.325 14.6415 12.2405 15.2591 12.0779 15.8548C11.0827 16.0446 9.95752 16.0523 8.92192 15.8548C8.75928 15.2592 8.67481 14.6416 8.67481 14.0154C8.67481 14.0076 8.67373 14.0001 8.67324 13.9924C8.67315 13.9909 8.67329 13.9894 8.67319 13.9879V13.7826C9.22832 14.0478 9.84795 14.197 10.4999 14.197Z" fill="black"/>
</svg>
